<?xml version="1.0" encoding="iso-8859-1"?>
<!-- Generator: Adobe Illustrator 19.0.0, SVG Export Plug-In . SVG Version: 6.00 Build 0)  -->
<svg version="1.1" id="Capa_1" xmlns="http://www.w3.org/2000/svg" xmlns:xlink="http://www.w3.org/1999/xlink" x="0px" y="0px" viewBox="0 0 512 512" style="enable-background:new 0 0 512 512;" xml:space="preserve">
	<path style="fill:#4AA5D3;" d="M377.98,213.424v247.564c21.141,0,39.703,0,63.1,0V213.424
	C419.94,213.424,401.377,213.424,377.98,213.424z" />
	<path style="fill:#2594BF;" d="M377.98,213.424v247.564c9.801,0,37.533,0,47.074,0v-66.427c0-18.784,0-162.016,0-181.137
	C415.505,213.424,387.776,213.424,377.98,213.424z" />
	<path style="fill:#E6E6E6;" d="M447.187,199.516c7.833,0,13.908,6.426,13.908,13.908c0,7.682-6.227,13.908-13.908,13.908
	c0.517,0-11.538,0-69.207,0v-27.817C387.021,199.516,437.302,199.516,447.187,199.516z" />
	<path style="fill:#CCCCCC;" d="M425.053,199.516c-12.434,0-34.604,0-47.073,0v27.817c4.673,0,41.498,0,47.073,0V199.516z" />
	<path style="fill:#E6E6E6;" d="M431.219,327.935c1.166,0,8.103,0,7.984,0c1.166,0,8.103,0,7.984,0
	c7.845,0,13.908,6.435,13.908,13.908c0,7.682-6.227,13.908-13.908,13.908c-32.722,0-36.21,0-69.207,0v-27.817
	C378.303,327.935,434.5,327.935,431.219,327.935z" />
	<path style="fill:#CCCCCC;" d="M425.053,327.935c-24.308,0-4.782,0-47.073,0v27.817c0.373,0,48.949,0,47.073,0V327.935z" />
	<path style="fill:#4AA5D3;" d="M134.02,213.424v247.564c-21.141,0-39.703,0-63.1,0V213.424
	C92.061,213.424,110.623,213.424,134.02,213.424z" />
	<path style="fill:#2594BF;" d="M101.966,213.424c-10.791,0-20.35,0-31.047,0v247.564c10.696,0,20.258,0,31.047,0
	C101.966,417.883,101.966,268.82,101.966,213.424z" />
	<g>
		<path style="fill:#E6E6E6;" d="M64.813,199.516c-6.447,0-11.852,4.392-13.429,10.342c-2.375,8.695,4.226,17.474,13.429,17.474
		c32.189,0,20.607,0,69.207,0v-27.817C75.541,199.516,151.016,199.516,64.813,199.516z" />
		<path style="fill:#E6E6E6;" d="M80.782,327.935c-1.166,0-8.103,0-7.984,0c-1.166,0-8.103,0-7.984,0
		c-7.724,0-13.908,6.307-13.908,13.908c0,7.682,6.227,13.908,13.908,13.908c25.132,0,44.823,0,69.207,0v-27.817
		C133.525,327.935,79.819,327.935,80.782,327.935z" />
	</g>
	<path style="fill:#4AA5D3;" d="M118.053,91.687c0,35.886,0,329.358,0,369.302h275.895c0-71.463,0-298.74,0-369.302
	C366.495,91.687,150.377,91.687,118.053,91.687z" />
	<path style="fill:#2594BF;" d="M118.053,91.687c0,35.886,0,329.358,0,369.302H149.1c0-84.438,0-289.874,0-369.302
	C141.452,91.687,134.781,91.687,118.053,91.687z" />
	<path style="fill:#E6E6E6;" d="M288.741,385.221h-65.827c-2.398,0-4.343,1.944-4.343,4.343c0,15.464,0,55.941,0,71.424h74.86
	c0-16.252,0-55.662,0-71.077C293.43,387.321,291.33,385.221,288.741,385.221z" />
	<path style="fill:#CCCCCC;" d="M256,385.221h-33.088c-2.398,0-4.343,1.944-4.343,4.343c0,15.464,0,55.941,0,71.424H256V385.221z" />
	<path style="fill:#B7B7B7;" d="M237.285,389.564c0-2.399,1.944-4.343,4.343-4.343h-18.715c-2.398,0-4.343,1.944-4.343,4.343
	c0,15.464,0,55.941,0,71.424h18.715C237.285,444.667,237.285,405.068,237.285,389.564z" />
	<path style="fill:#66CDED;" d="M188.676,428.852h-36.394c-1.758,0-3.183-1.425-3.183-3.183v-37.264c0-1.758,1.425-3.183,3.183-3.183
	h36.394c1.758,0,3.183,1.425,3.183,3.183v37.264C191.86,427.427,190.434,428.852,188.676,428.852z" />
	<path style="fill:#56BAE2;" d="M170.479,425.669v-37.264c0-1.758,1.425-3.183,3.183-3.183h-21.38c-1.758,0-3.183,1.425-3.183,3.183
	v37.264c0,1.758,1.425,3.183,3.183,3.183h21.38C171.904,428.852,170.479,427.427,170.479,425.669z" />
	<path style="fill:#66CDED;" d="M191.86,184.778h-37.898c-2.685,0-4.862-2.177-4.862-4.862v-33.906c0-2.685,2.177-4.862,4.862-4.862
	h37.898L191.86,184.778L191.86,184.778z" />
	<g>
		<path style="fill:#56BAE2;" d="M170.479,179.916v-33.906c0-2.685,2.177-4.862,4.862-4.862h-21.38c-2.685,0-4.862,2.177-4.862,4.862
		v33.906c0,2.685,2.177,4.862,4.862,4.862h21.38C172.656,184.778,170.479,182.601,170.479,179.916z" />
		<rect x="191.862" y="141.151" style="fill:#56BAE2;" width="42.76" height="43.63" />
	</g>
	<rect x="234.62" y="141.151" style="fill:#66CDED;" width="42.76" height="43.63" />
	<rect x="277.378" y="141.151" style="fill:#56BAE2;" width="42.76" height="43.63" />
	<path style="fill:#66CDED;" d="M357.922,184.778H320.14v-43.63h37.781c2.75,0,4.98,2.229,4.98,4.98v33.672
	C362.901,182.549,360.673,184.778,357.922,184.778z" />
	<path style="fill:#E6E6E6;" d="M404.861,71.271c-19.917,0-284.725,0-297.726,0c-7.272,0-13.307,5.614-13.855,12.86
	c-0.597,8.321,5.957,14.956,13.855,14.956c-1.078,0,96.67,0,297.726,0c7.682,0,13.908-6.227,13.908-13.908
	C418.768,77.642,412.642,71.271,404.861,71.271z" />
	<g>
		<path style="fill:#CCCCCC;" d="M135.937,82.806c1.135-6.573,6.847-11.537,13.691-11.537c-9.197,0-29.196,0-42.495,0
		c-6.987,0-12.892,5.194-13.786,12.153c-1.062,8.474,5.54,15.662,13.786,15.662c12.778,0,26.032,0,42.495,0
		C141.048,99.087,134.435,91.349,135.937,82.806z" />
		<path style="fill:#CCCCCC;" d="M93.879,209.859c1.577-5.951,6.984-10.343,13.43-10.343c-9.197,0-29.196,0-42.495,0
		c-6.834,0-12.554,4.954-13.691,11.536c-1.501,8.54,5.109,16.28,13.691,16.28c12.778,0,26.032,0,42.495,0
		C98.219,227.332,91.502,218.704,93.879,209.859z" />
		<path style="fill:#CCCCCC;" d="M93.617,339.47c1.135-6.573,6.847-11.536,13.691-11.536c-9.197,0-29.196,0-42.495,0
		c-7.539,0-13.542,5.985-13.892,13.236c-0.389,7.903,5.924,14.58,13.892,14.58c12.284,0,28.067,0,42.495,0
		C98.727,355.751,92.115,348.013,93.617,339.47z" />
	</g>
	<path style="fill:#E6E6E6;" d="M468.902,456.352c-22.431,0-393.179,0-425.803,0c-6.241,0-11.522,4.111-13.283,9.773
	c-0.761,2.448-0.625,1.098-0.625,26.973c135.436,0,318.289,0,453.62,0c0-8.339,0-14.491,0-22.836
	C482.81,462.597,476.601,456.352,468.902,456.352z" />
	<g>
		<path style="fill:#CCCCCC;" d="M86.443,470.261c0-7.666,6.21-13.908,13.908-13.908H43.098c-6.241,0-11.522,4.111-13.283,9.773
		c-1.007,3.238-0.477,5.103-0.625,13.064c0,4.771,0,9.046,0,13.908c13.617,0,46.021,0,57.253,0
		C86.443,485.368,86.443,478.82,86.443,470.261z" />
		<path style="fill:#CCCCCC;" d="M498.092,484.169c-65.851,0-441.291,0-484.183,0C5.993,484.169,0,490.692,0,498.078l0,0
		c0,7.682,6.227,13.908,13.908,13.908c39.292,0,504.339,0,484.183,0c7.682,0,13.908-6.227,13.908-13.908l0,0
		C512,490.571,505.903,484.169,498.092,484.169z" />
	</g>
	<path style="fill:#B7B7B7;" d="M70.973,497.03c0.537-7.137,6.485-12.86,13.855-12.86c-6.981,0-63.995,0-70.92,0
	C6.048,484.169,0,490.627,0,498.078c0,7.682,6.227,13.908,13.908,13.908c22.107,0,50.374,0,70.92,0
	C76.897,511.986,70.363,505.3,70.973,497.03z" />
	<circle style="fill:#ED5A5A;" cx="256.329" cy="49.552" r="49.538" />
	<path style="fill:#E04B4B;" d="M237.516,60.412c-11.264-19.509-7.738-43.487,7.084-58.986c-32.128,7.843-47.66,44.336-31.172,72.894
	c16.472,28.531,55.834,33.38,78.714,9.452C271.308,88.856,248.779,79.922,237.516,60.412z" />
	<path style="fill:#E6E6E6;" d="M274.811,41.825h-10.759V31.068c0-4.267-3.459-7.727-7.727-7.727c-4.267,0-7.727,3.459-7.727,7.727
	v10.758h-10.758c-4.267,0-7.727,3.459-7.727,7.727s3.459,7.727,7.727,7.727h10.758v10.759c0,4.267,3.459,7.727,7.727,7.727
	c4.267,0,7.727-3.459,7.727-7.727V57.279h10.759c4.267,0,7.727-3.459,7.727-7.727S279.078,41.825,274.811,41.825z" />
	<path style="fill:#66CDED;" d="M191.86,266.136h-37.898c-2.685,0-4.862-2.177-4.862-4.862v-33.906c0-2.685,2.177-4.862,4.862-4.862
	h37.898L191.86,266.136L191.86,266.136z" />
	<g>
		<path style="fill:#56BAE2;" d="M170.479,261.274v-33.906c0-2.685,2.177-4.862,4.862-4.862h-21.38c-2.685,0-4.862,2.177-4.862,4.862
		v33.906c0,2.685,2.177,4.862,4.862,4.862h21.38C172.656,266.136,170.479,263.959,170.479,261.274z" />
		<rect x="191.862" y="222.507" style="fill:#56BAE2;" width="42.76" height="43.63" />
	</g>
	<rect x="234.62" y="222.507" style="fill:#66CDED;" width="42.76" height="43.63" />
	<rect x="277.378" y="222.507" style="fill:#56BAE2;" width="42.76" height="43.63" />
	<g>
		<path style="fill:#66CDED;" d="M357.922,266.136H320.14v-43.63h37.781c2.75,0,4.98,2.229,4.98,4.98v33.672
		C362.901,263.907,360.673,266.136,357.922,266.136z" />
		<path style="fill:#66CDED;" d="M191.86,347.494h-37.898c-2.685,0-4.862-2.177-4.862-4.862v-33.906c0-2.685,2.177-4.862,4.862-4.862
		h37.898L191.86,347.494L191.86,347.494z" />
	</g>
	<g>
		<path style="fill:#56BAE2;" d="M170.479,342.631v-33.906c0-2.685,2.177-4.862,4.862-4.862h-21.38c-2.685,0-4.862,2.177-4.862,4.862
		v33.906c0,2.685,2.177,4.862,4.862,4.862h21.38C172.656,347.494,170.479,345.317,170.479,342.631z" />
		<rect x="191.862" y="303.864" style="fill:#56BAE2;" width="42.76" height="43.63" />
	</g>
	<rect x="234.62" y="303.864" style="fill:#66CDED;" width="42.76" height="43.63" />
	<rect x="277.378" y="303.864" style="fill:#56BAE2;" width="42.76" height="43.63" />
	<g>
		<path style="fill:#66CDED;" d="M357.922,347.494H320.14v-43.63h37.781c2.75,0,4.98,2.229,4.98,4.98v33.672
		C362.901,345.264,360.673,347.494,357.922,347.494z" />
		<path style="fill:#66CDED;" d="M359.719,428.852h-36.394c-1.758,0-3.183-1.425-3.183-3.183v-37.264
		c0-1.758,1.425-3.183,3.183-3.183h36.394c1.758,0,3.183,1.425,3.183,3.183v37.264C362.901,427.427,361.477,428.852,359.719,428.852
		z" />
	</g>
	<path style="fill:#56BAE2;" d="M341.521,425.669v-37.264c0-1.758,1.425-3.183,3.183-3.183h-21.38c-1.758,0-3.183,1.425-3.183,3.183
	v37.264c0,1.758,1.425,3.183,3.183,3.183h21.38C342.946,428.852,341.521,427.427,341.521,425.669z" />
</svg>
